<svg width="16" height="16" viewBox="0 0 16 16" fill="none" xmlns="http://www.w3.org/2000/svg">
<rect width="16" height="16" rx="4" fill="#3554D1"/>
<path d="M6.24885 4.17172L6.13723 3.75403C5.89471 3.81893 5.65632 3.89836 5.42334 3.99188L5.58445 4.39307C5.80128 4.30604 6.02315 4.23213 6.24885 4.17172Z" fill="white"/>
<path d="M4.95151 4.69271L4.74348 4.31372C4.52342 4.43465 4.31078 4.56862 4.10669 4.71491L4.35873 5.06617C4.54872 4.93001 4.74666 4.8053 4.95151 4.69271Z" fill="white"/>
<path d="M3 5.73169L3.32865 6.01255C3.48057 5.83488 3.64308 5.66655 3.81529 5.50847L3.52296 5.19C3.3379 5.35987 3.16326 5.54076 3 5.73169Z" fill="white"/>
<path d="M12.3308 5.55756L12.0125 5.85003C12.1706 6.02226 12.3182 6.20379 12.4546 6.39364L12.8059 6.1416C12.6593 5.93759 12.5007 5.74256 12.3308 5.55756Z" fill="white"/>
<path d="M10.948 4.94158C11.1428 5.07084 11.3296 5.21174 11.5074 5.36351L11.7881 5.03473C11.597 4.87153 11.3962 4.72008 11.1868 4.58124L10.948 4.94158Z" fill="white"/>
<path d="M10.5349 4.20406C10.3102 4.09187 10.0789 3.99332 9.84238 3.90894L9.69727 4.31617C9.91739 4.39463 10.1326 4.48633 10.3416 4.59077L10.5349 4.20406Z" fill="white"/>
<path d="M6.62534 4.49545L6.91917 4.49559L7.16408 4.12415L7.63565 4.1274L7.33874 5.15112V5.17533C7.33881 5.2375 7.36354 5.2971 7.40749 5.34106C7.45144 5.38503 7.51104 5.40976 7.5732 5.40985H7.99917L8.67515 4.15622L9.19759 4.17351C9.46801 4.17351 9.68806 3.96131 9.68806 3.70063C9.68811 3.63724 9.67509 3.57453 9.6498 3.51641C9.6245 3.45829 9.58749 3.40601 9.54107 3.36285C9.44669 3.27449 9.32177 3.22608 9.19249 3.22776H9.19212L8.67069 3.2452L7.99931 2.00014L7.57262 2C7.51055 2.00029 7.45112 2.02512 7.40731 2.06907C7.36349 2.11303 7.33884 2.17253 7.33874 2.2346V2.25873L7.63329 3.27432L7.15968 3.27841L6.91903 2.91435L6.62542 2.91441C6.56746 2.91446 6.51187 2.9375 6.47088 2.97849C6.42988 3.01947 6.40681 3.07504 6.40674 3.13301V4.27691C6.40679 4.33486 6.42984 4.39043 6.47083 4.4314C6.51181 4.47238 6.56739 4.49541 6.62534 4.49545ZM6.74691 3.27078L6.97791 3.62023L8.0852 3.61065L7.71664 2.34024H7.79619L8.47139 3.59227L9.19782 3.568C9.2384 3.56752 9.27762 3.5826 9.30742 3.61014C9.32002 3.62162 9.33011 3.63558 9.33708 3.65114C9.34404 3.6667 9.34772 3.68353 9.34789 3.70058C9.34789 3.77384 9.28047 3.83336 9.20329 3.83344L8.47586 3.80937L7.79612 5.0697H7.71658L8.08756 3.79044L6.98179 3.78272L6.74676 4.13889V3.27078H6.74691Z" fill="white"/>
<path d="M8.59884 5.89778C8.31672 5.83339 8.02828 5.80079 7.73891 5.8006C5.92932 5.8006 4.38424 7.0347 3.9817 8.80162C3.92002 9.07282 3.88777 9.34987 3.8855 9.62799H4.31789C4.31969 9.45477 4.33454 9.28193 4.36234 9.11095C4.60544 9.17326 4.85589 9.27327 4.93639 9.33891C4.93264 9.36681 4.92831 9.39504 4.92391 9.4235C4.91419 9.48656 4.90367 9.5563 4.89935 9.62799H5.3331C5.33763 9.57899 5.34535 9.52732 5.35118 9.48936C5.35918 9.43725 5.36711 9.38538 5.37207 9.33523C5.39896 9.06374 5.09107 8.84666 4.45817 8.68938C4.62446 8.11531 4.9391 7.59519 5.37039 7.18143C5.80167 6.76766 6.33438 6.47484 6.91484 6.33247C6.83998 6.48021 6.79327 6.64059 6.77708 6.80542C6.76656 6.90082 6.75287 6.98699 6.74085 7.06287C6.69243 7.36881 6.64234 7.68518 7.05607 7.86934C7.2217 7.94465 7.39932 7.99014 7.58077 8.00372C7.64094 8.00847 7.70067 8.01775 7.75946 8.03146C7.78041 8.10172 7.76983 8.27335 7.76557 8.34194C7.76018 8.42904 7.7547 8.51796 7.78128 8.59058C7.85543 8.97381 8.02781 9.33122 8.28154 9.62784H8.93209C8.30668 9.21953 8.20704 8.5215 8.20292 8.4908L8.19407 8.41961C8.19494 8.40276 8.19601 8.38431 8.19702 8.36852C8.21093 8.14351 8.23687 7.72446 7.9161 7.62647C7.82142 7.5992 7.72422 7.58158 7.626 7.57387C7.50555 7.56119 7.40157 7.55024 7.2321 7.47465C7.1212 7.42522 7.1212 7.42522 7.16783 7.13053C7.18059 7.04992 7.19506 6.95841 7.20667 6.85292C7.2276 6.62526 7.32312 6.41088 7.47838 6.24307C7.56449 6.23665 7.65131 6.23276 7.73892 6.23276C7.99599 6.23295 8.25224 6.2619 8.50287 6.31907C9.24225 6.48763 9.90483 6.89669 10.3868 7.48216C10.8688 8.06763 11.143 8.79644 11.1664 9.55442C11.1304 9.57798 11.0857 9.60284 11.0376 9.62784H11.5989C11.5923 8.75899 11.2924 7.91785 10.7479 7.2408C10.2033 6.56375 9.44606 6.0905 8.59884 5.89778Z" fill="white"/>
<path d="M8.59884 13.3314C8.31672 13.3958 8.02828 13.4284 7.73891 13.4286C5.92932 13.4286 4.38424 12.1945 3.9817 10.4276C3.92002 10.1564 3.88777 9.87931 3.8855 9.6012H4.31789C4.31969 9.77442 4.33454 9.94726 4.36234 10.1182C4.60544 10.0559 4.85589 9.95592 4.93639 9.89027C4.93264 9.86238 4.92831 9.83415 4.92391 9.80568C4.91419 9.74263 4.90367 9.67288 4.89935 9.6012H5.3331C5.33763 9.6502 5.34535 9.70187 5.35118 9.73983C5.35918 9.79193 5.36711 9.84381 5.37207 9.89396C5.39896 10.1654 5.09107 10.3825 4.45817 10.5398C4.62446 11.1139 4.9391 11.634 5.37039 12.0478C5.80167 12.4615 6.33438 12.7543 6.91484 12.8967C6.83998 12.749 6.79327 12.5886 6.77708 12.4238C6.76656 12.3284 6.75287 12.2422 6.74085 12.1663C6.69243 11.8604 6.64234 11.544 7.05607 11.3598C7.2217 11.2845 7.39932 11.239 7.58077 11.2255C7.64094 11.2207 7.70067 11.2114 7.75946 11.1977C7.78041 11.1275 7.76983 10.9558 7.76557 10.8872C7.76018 10.8001 7.7547 10.7112 7.78128 10.6386C7.85543 10.2554 8.02781 9.89796 8.28154 9.60135H8.93209C8.30668 10.0097 8.20704 10.7077 8.20292 10.7384L8.19407 10.8096C8.19494 10.8264 8.19601 10.8449 8.19702 10.8607C8.21093 11.0857 8.23687 11.5047 7.9161 11.6027C7.82142 11.63 7.72422 11.6476 7.626 11.6553C7.50555 11.668 7.40157 11.6789 7.2321 11.7545C7.1212 11.804 7.1212 11.804 7.16783 12.0987C7.18059 12.1793 7.19506 12.2708 7.20667 12.3763C7.2276 12.6039 7.32312 12.8183 7.47838 12.9861C7.56449 12.9925 7.65131 12.9964 7.73892 12.9964C7.99599 12.9962 8.25224 12.9673 8.50287 12.9101C9.24225 12.7416 9.90483 12.3325 10.3868 11.747C10.8688 11.1616 11.143 10.4327 11.1664 9.67476C11.1304 9.65121 11.0857 9.62634 11.0376 9.60135H11.5989C11.5923 10.4702 11.2924 11.3113 10.7479 11.9884C10.2033 12.6654 9.44606 13.1387 8.59884 13.3314Z" fill="white"/>
</svg>
