<svg width="204" height="42" viewBox="0 0 204 42" fill="none" xmlns="http://www.w3.org/2000/svg">
<rect width="204" height="42" fill="white"/>
<path d="M61.918 14.436V16.38H58.516V27H55.996V16.38H52.612V14.436H61.918ZM66.0397 18.792C66.3517 18.192 66.7537 17.724 67.2457 17.388C67.7497 17.052 68.3197 16.884 68.9557 16.884V19.476H68.3257C67.5697 19.476 66.9997 19.668 66.6157 20.052C66.2317 20.424 66.0397 21.072 66.0397 21.996V27H63.5017V17.028H66.0397V18.792ZM74.3255 16.884C75.0335 16.884 75.6635 17.034 76.2155 17.334C76.7675 17.634 77.2115 18.048 77.5475 18.576V17.028H80.0675V27H77.5475V25.326C77.1995 25.89 76.7495 26.334 76.1975 26.658C75.6575 26.982 75.0335 27.144 74.3255 27.144C73.4735 27.144 72.6935 26.928 71.9855 26.496C71.2895 26.052 70.7315 25.44 70.3115 24.66C69.9035 23.88 69.6995 22.992 69.6995 21.996C69.6995 21 69.9035 20.118 70.3115 19.35C70.7315 18.57 71.2895 17.964 71.9855 17.532C72.6935 17.1 73.4735 16.884 74.3255 16.884ZM74.9015 19.08C74.4575 19.08 74.0315 19.194 73.6235 19.422C73.2275 19.65 72.9035 19.986 72.6515 20.43C72.3995 20.862 72.2735 21.384 72.2735 21.996C72.2735 22.608 72.3995 23.142 72.6515 23.598C72.9035 24.042 73.2275 24.378 73.6235 24.606C74.0315 24.834 74.4575 24.948 74.9015 24.948C75.3575 24.948 75.7835 24.834 76.1795 24.606C76.5875 24.378 76.9175 24.042 77.1695 23.598C77.4215 23.154 77.5475 22.626 77.5475 22.014C77.5475 21.402 77.4215 20.874 77.1695 20.43C76.9175 19.986 76.5875 19.65 76.1795 19.422C75.7835 19.194 75.3575 19.08 74.9015 19.08ZM86.4489 24.822L89.0049 17.028H91.7049L88.0329 27H84.8469L81.1749 17.028H83.8749L86.4489 24.822ZM102.048 21.87C102.048 22.218 102.024 22.542 101.976 22.842H94.7043C94.7643 23.49 95.0043 24.012 95.4243 24.408C95.8443 24.804 96.3783 25.002 97.0263 25.002C97.5303 25.002 97.9323 24.906 98.2323 24.714C98.5323 24.522 98.7783 24.258 98.9703 23.922H101.706C101.418 24.87 100.86 25.644 100.032 26.244C99.2043 26.844 98.2023 27.144 97.0263 27.144C96.0783 27.144 95.2323 26.934 94.4883 26.514C93.7443 26.082 93.1623 25.482 92.7423 24.714C92.3223 23.934 92.1123 23.028 92.1123 21.996C92.1123 20.964 92.3223 20.064 92.7423 19.296C93.1623 18.528 93.7443 17.934 94.4883 17.514C95.2443 17.094 96.1023 16.884 97.0623 16.884C98.0223 16.884 98.8743 17.088 99.6183 17.496C100.374 17.904 100.968 18.486 101.4 19.242C101.832 19.986 102.048 20.862 102.048 21.87ZM99.4203 21.204C99.3843 20.544 99.1383 20.016 98.6823 19.62C98.2383 19.224 97.6863 19.026 97.0263 19.026C96.4143 19.026 95.8923 19.224 95.4603 19.62C95.0403 20.016 94.7883 20.544 94.7043 21.204H99.4203ZM106.225 13.68V27H103.687V13.68H106.225ZM122.799 29.178L120.945 26.928C120.393 27.06 119.853 27.126 119.325 27.126C118.149 27.126 117.069 26.85 116.085 26.298C115.101 25.746 114.321 24.984 113.745 24.012C113.181 23.028 112.899 21.918 112.899 20.682C112.899 19.458 113.181 18.36 113.745 17.388C114.321 16.404 115.101 15.636 116.085 15.084C117.069 14.532 118.149 14.256 119.325 14.256C120.513 14.256 121.593 14.532 122.565 15.084C123.549 15.636 124.323 16.404 124.887 17.388C125.463 18.36 125.751 19.458 125.751 20.682C125.751 21.786 125.517 22.794 125.049 23.706C124.593 24.618 123.957 25.362 123.141 25.938L125.931 29.178H122.799ZM115.473 20.682C115.473 21.498 115.635 22.218 115.959 22.842C116.283 23.466 116.733 23.952 117.309 24.3C117.897 24.636 118.569 24.804 119.325 24.804C120.081 24.804 120.747 24.636 121.323 24.3C121.899 23.952 122.349 23.472 122.673 22.86C122.997 22.236 123.159 21.51 123.159 20.682C123.159 19.854 122.997 19.134 122.673 18.522C122.349 17.898 121.899 17.418 121.323 17.082C120.747 16.746 120.081 16.578 119.325 16.578C118.569 16.578 117.897 16.746 117.309 17.082C116.733 17.418 116.283 17.898 115.959 18.522C115.635 19.146 115.473 19.866 115.473 20.682ZM136.876 17.028V27H134.338V25.488C134.026 26.016 133.6 26.424 133.06 26.712C132.532 26.988 131.92 27.126 131.224 27.126C130.492 27.126 129.832 26.964 129.244 26.64C128.668 26.304 128.212 25.818 127.876 25.182C127.54 24.534 127.372 23.766 127.372 22.878V17.028H129.892V22.518C129.892 23.298 130.09 23.898 130.486 24.318C130.882 24.738 131.422 24.948 132.106 24.948C132.79 24.948 133.33 24.738 133.726 24.318C134.134 23.898 134.338 23.298 134.338 22.518V17.028H136.876ZM143.678 16.884C144.626 16.884 145.49 17.094 146.27 17.514C147.05 17.934 147.668 18.534 148.124 19.314C148.58 20.082 148.808 20.976 148.808 21.996C148.808 23.016 148.58 23.916 148.124 24.696C147.668 25.476 147.044 26.082 146.252 26.514C145.472 26.934 144.602 27.144 143.642 27.144C142.694 27.144 141.83 26.934 141.05 26.514C140.27 26.082 139.652 25.476 139.196 24.696C138.752 23.916 138.53 23.016 138.53 21.996C138.53 20.976 138.758 20.082 139.214 19.314C139.67 18.534 140.288 17.934 141.068 17.514C141.848 17.094 142.718 16.884 143.678 16.884ZM143.66 19.026C142.94 19.026 142.334 19.284 141.842 19.8C141.35 20.316 141.104 21.054 141.104 22.014C141.104 22.662 141.218 23.214 141.446 23.67C141.686 24.114 141.998 24.45 142.382 24.678C142.766 24.894 143.186 25.002 143.642 25.002C144.086 25.002 144.506 24.888 144.902 24.66C145.298 24.432 145.616 24.096 145.856 23.652C146.108 23.196 146.234 22.65 146.234 22.014C146.234 21.366 146.114 20.82 145.874 20.376C145.634 19.92 145.316 19.584 144.92 19.368C144.536 19.14 144.116 19.026 143.66 19.026ZM155.531 24.876V27H153.929C152.909 27 152.123 26.766 151.571 26.298C151.019 25.83 150.743 25.056 150.743 23.976V19.098H149.681V17.028H150.743V14.562H153.281V17.028H155.513V19.098H153.281V23.976C153.281 24.3 153.359 24.534 153.515 24.678C153.671 24.81 153.941 24.876 154.325 24.876H155.531ZM161.068 16.884C161.776 16.884 162.406 17.034 162.958 17.334C163.51 17.634 163.954 18.048 164.29 18.576V17.028H166.81V27H164.29V25.326C163.942 25.89 163.492 26.334 162.94 26.658C162.4 26.982 161.776 27.144 161.068 27.144C160.216 27.144 159.436 26.928 158.728 26.496C158.032 26.052 157.474 25.44 157.054 24.66C156.646 23.88 156.442 22.992 156.442 21.996C156.442 21 156.646 20.118 157.054 19.35C157.474 18.57 158.032 17.964 158.728 17.532C159.436 17.1 160.216 16.884 161.068 16.884ZM161.644 19.08C161.2 19.08 160.774 19.194 160.366 19.422C159.97 19.65 159.646 19.986 159.394 20.43C159.142 20.862 159.016 21.384 159.016 21.996C159.016 22.608 159.142 23.142 159.394 23.598C159.646 24.042 159.97 24.378 160.366 24.606C160.774 24.834 161.2 24.948 161.644 24.948C162.1 24.948 162.526 24.834 162.922 24.606C163.33 24.378 163.66 24.042 163.912 23.598C164.164 23.154 164.29 22.626 164.29 22.014C164.29 21.402 164.164 20.874 163.912 20.43C163.66 19.986 163.33 19.65 162.922 19.422C162.526 19.194 162.1 19.08 161.644 19.08ZM176.716 25.074H180.748V27H174.178V14.436H176.716V25.074ZM184.635 25.074H188.667V27H182.097V14.436H184.635V25.074ZM195.74 14.256C197.108 14.256 198.32 14.604 199.376 15.3C200.444 15.996 201.206 16.974 201.662 18.234H198.62C198.056 17.13 197.096 16.578 195.74 16.578C194.984 16.578 194.312 16.746 193.724 17.082C193.148 17.418 192.698 17.898 192.374 18.522C192.05 19.146 191.888 19.866 191.888 20.682C191.888 21.498 192.05 22.218 192.374 22.842C192.698 23.466 193.148 23.952 193.724 24.3C194.312 24.636 194.984 24.804 195.74 24.804C197.084 24.804 198.044 24.252 198.62 23.148H201.662C201.206 24.408 200.444 25.386 199.376 26.082C198.32 26.766 197.108 27.108 195.74 27.108C194.564 27.108 193.484 26.838 192.5 26.298C191.516 25.746 190.736 24.984 190.16 24.012C189.596 23.028 189.314 21.918 189.314 20.682C189.314 19.458 189.596 18.36 190.16 17.388C190.736 16.404 191.516 15.636 192.5 15.084C193.484 14.532 194.564 14.256 195.74 14.256Z" fill="black"/>
<rect width="42" height="42" rx="16" fill="#3554D1"/>
<path d="M16.528 11.7008L16.235 10.6044C15.5984 10.7747 14.9727 10.9832 14.3611 11.2287L14.784 12.2818C15.3532 12.0534 15.9356 11.8594 16.528 11.7008Z" fill="white"/>
<path d="M13.1229 13.0683L12.5769 12.0735C11.9992 12.3909 11.441 12.7426 10.9053 13.1266L11.5669 14.0487C12.0656 13.6912 12.5852 13.3639 13.1229 13.0683Z" fill="white"/>
<path d="M8 15.7956L8.86271 16.5329C9.26151 16.0665 9.68809 15.6247 10.1401 15.2097L9.37278 14.3737C8.88698 14.8196 8.42855 15.2945 8 15.7956Z" fill="white"/>
<path d="M32.4933 15.3386L31.6577 16.1063C32.0727 16.5584 32.4603 17.0349 32.8185 17.5333L33.7405 16.8717C33.3558 16.3362 32.9393 15.8242 32.4933 15.3386Z" fill="white"/>
<path d="M28.8638 13.7217C29.3751 14.061 29.8655 14.4308 30.3322 14.8292L31.0691 13.9662C30.5675 13.5378 30.0404 13.1402 29.4906 12.7758L28.8638 13.7217Z" fill="white"/>
<path d="M27.779 11.7856C27.1892 11.4911 26.5822 11.2324 25.9612 11.0109L25.5803 12.0799C26.1581 12.2859 26.723 12.5266 27.2717 12.8007L27.779 11.7856Z" fill="white"/>
<path d="M17.5162 12.5505L18.2875 12.5509L18.9304 11.5758L20.1683 11.5844L19.3889 14.2716V14.3352C19.3891 14.4984 19.454 14.6548 19.5694 14.7702C19.6847 14.8856 19.8412 14.9506 20.0044 14.9508H21.1225L22.897 11.66L24.2684 11.7054C24.9782 11.7054 25.5559 11.1484 25.5559 10.4641C25.556 10.2977 25.5218 10.1331 25.4554 9.98051C25.389 9.82795 25.2919 9.69072 25.17 9.57742C24.9222 9.34548 24.5943 9.2184 24.255 9.22282H24.254L22.8853 9.26859L21.1229 6.00031L20.0028 5.99994C19.8399 6.0007 19.6839 6.06588 19.5689 6.18126C19.4538 6.29664 19.3891 6.45284 19.3889 6.61576V6.67912L20.1621 9.34502L18.9189 9.35577L18.2871 8.4001L17.5164 8.40026C17.3643 8.4004 17.2184 8.46089 17.1107 8.56847C17.0031 8.67605 16.9426 8.82193 16.9424 8.9741V11.9768C16.9425 12.129 17.003 12.2748 17.1106 12.3824C17.2182 12.4899 17.3641 12.5504 17.5162 12.5505ZM17.8353 9.33573L18.4417 10.253L21.3483 10.2279L20.3809 6.89306H20.5897L22.3621 10.1796L24.269 10.1159C24.3755 10.1147 24.4784 10.1543 24.5567 10.2266C24.5897 10.2567 24.6162 10.2933 24.6345 10.3342C24.6528 10.375 24.6625 10.4192 24.6629 10.4639C24.6629 10.6563 24.4859 10.8125 24.2833 10.8127L22.3738 10.7495L20.5895 14.0579H20.3807L21.3545 10.6998L18.4519 10.6796L17.8349 11.6145V9.33573H17.8353Z" fill="white"/>
<path d="M22.6972 16.2316C21.9567 16.0626 21.1995 15.977 20.4399 15.9765C15.6897 15.9765 11.6339 19.216 10.5772 23.8542C10.4153 24.5661 10.3307 25.2933 10.3247 26.0234H11.4597C11.4644 25.5687 11.5034 25.115 11.5764 24.6662C12.2146 24.8297 12.872 25.0923 13.0833 25.2646C13.0734 25.3378 13.0621 25.4119 13.0505 25.4866C13.025 25.6522 12.9974 25.8352 12.9861 26.0234H14.1247C14.1366 25.8948 14.1568 25.7591 14.1721 25.6595C14.1931 25.5227 14.2139 25.3865 14.227 25.2549C14.2975 24.5422 13.4893 23.9724 11.828 23.5596C12.2645 22.0526 13.0904 20.6873 14.2225 19.6012C15.3547 18.515 16.753 17.7464 18.2767 17.3727C18.0802 17.7605 17.9576 18.1815 17.9151 18.6142C17.8875 18.8646 17.8516 19.0908 17.82 19.29C17.6929 20.093 17.5614 20.9235 18.6474 21.4069C19.0822 21.6046 19.5485 21.724 20.0248 21.7597C20.1827 21.7722 20.3395 21.7965 20.4938 21.8325C20.5489 22.017 20.5211 22.4675 20.5099 22.6475C20.4957 22.8762 20.4814 23.1096 20.5511 23.3002C20.7458 24.3062 21.1983 25.2444 21.8643 26.023H23.572C21.9303 24.9512 21.6688 23.1189 21.658 23.0383L21.6347 22.8514C21.637 22.8072 21.6398 22.7587 21.6424 22.7173C21.679 22.1267 21.7471 21.0266 20.905 20.7694C20.6565 20.6978 20.4014 20.6516 20.1435 20.6313C19.8273 20.5981 19.5544 20.5693 19.1095 20.3709C18.8184 20.2411 18.8184 20.2411 18.9408 19.4676C18.9743 19.256 19.0123 19.0158 19.0428 18.7389C19.0977 18.1412 19.3485 17.5785 19.756 17.138C19.9821 17.1211 20.21 17.1109 20.4399 17.1109C21.1148 17.1114 21.7874 17.1874 22.4453 17.3375C24.3862 17.78 26.1255 18.8537 27.3907 20.3906C28.6559 21.9275 29.3757 23.8406 29.4371 25.8303C29.3427 25.8921 29.2253 25.9574 29.0989 26.023H30.5725C30.5552 23.7423 29.768 21.5343 28.3385 19.757C26.9091 17.9798 24.9212 16.7375 22.6972 16.2316Z" fill="white"/>
<path d="M22.6972 35.745C21.9567 35.914 21.1995 35.9996 20.4399 36.0001C15.6897 36.0001 11.6339 32.7605 10.5772 28.1224C10.4153 27.4105 10.3307 26.6832 10.3247 25.9532H11.4597C11.4644 26.4079 11.5034 26.8616 11.5764 27.3104C12.2146 27.1468 12.872 26.8843 13.0833 26.712C13.0734 26.6388 13.0621 26.5647 13.0505 26.4899C13.025 26.3244 12.9974 26.1413 12.9861 25.9532H14.1247C14.1366 26.0818 14.1568 26.2174 14.1721 26.3171C14.1931 26.4538 14.2139 26.59 14.227 26.7217C14.2975 27.4343 13.4893 28.0042 11.828 28.417C12.2645 29.9239 13.0904 31.2892 14.2225 32.3754C15.3547 33.4615 16.753 34.2302 18.2767 34.6039C18.0802 34.2161 17.9576 33.7951 17.9151 33.3624C17.8875 33.112 17.8516 32.8858 17.82 32.6866C17.6929 31.8835 17.5614 31.053 18.6474 30.5696C19.0822 30.3719 19.5485 30.2525 20.0248 30.2169C20.1827 30.2044 20.3395 30.18 20.4938 30.144C20.5489 29.9596 20.5211 29.5091 20.5099 29.329C20.4957 29.1004 20.4814 28.867 20.5511 28.6763C20.7458 27.6704 21.1983 26.7322 21.8643 25.9535H23.572C21.9303 27.0254 21.6688 28.8577 21.658 28.9383L21.6347 29.1251C21.637 29.1694 21.6398 29.2178 21.6424 29.2593C21.679 29.8499 21.7471 30.9499 20.905 31.2071C20.6565 31.2787 20.4014 31.325 20.1435 31.3452C19.8273 31.3785 19.5544 31.4073 19.1095 31.6057C18.8184 31.7354 18.8184 31.7354 18.9408 32.509C18.9743 32.7206 19.0123 32.9608 19.0428 33.2377C19.0977 33.8353 19.3485 34.3981 19.756 34.8386C19.9821 34.8554 20.21 34.8656 20.4399 34.8656C21.1148 34.8651 21.7874 34.7891 22.4453 34.6391C24.3862 34.1966 26.1255 33.1228 27.3907 31.586C28.6559 30.0491 29.3757 28.136 29.4371 26.1463C29.3427 26.0844 29.2253 26.0192 29.0989 25.9536H30.5725C30.5552 28.2343 29.768 30.4423 28.3385 32.2195C26.9091 33.9968 24.9212 35.2391 22.6972 35.745Z" fill="white"/>
</svg>
